<svg xmlns="http://www.w3.org/2000/svg" width="21.082" height="20.561" viewBox="0 0 21.082 20.561">
  <path id="github" d="M13.541,3a10.542,10.542,0,0,0-3.333,20.543c.527.092.724-.225.724-.5,0-.249-.013-1.079-.013-1.963-2.648.488-3.333-.645-3.544-1.239a3.84,3.84,0,0,0-1.08-1.489c-.369-.2-.9-.685-.013-.7A2.11,2.11,0,0,1,7.9,18.732a2.253,2.253,0,0,0,3.07.869,2.217,2.217,0,0,1,.673-1.41c-2.346-.264-4.8-1.173-4.8-5.205a4.1,4.1,0,0,1,1.08-2.833A3.788,3.788,0,0,1,8.034,7.36s.883-.276,2.9,1.082a9.934,9.934,0,0,1,5.271,0c2.015-1.37,2.9-1.079,2.9-1.079a3.788,3.788,0,0,1,.105,2.793,4.078,4.078,0,0,1,1.08,2.832c0,4.046-2.464,4.942-4.809,5.205a2.5,2.5,0,0,1,.712,1.95c0,1.41-.013,2.543-.013,2.9,0,.276.2.605.725.5A10.546,10.546,0,0,0,13.541,3Z" transform="translate(-3 -3)" fill-rule="evenodd"/>
</svg>
