<?xml version="1.0" encoding="utf-8"?>
<!-- Generator: Adobe Illustrator 25.4.1, SVG Export Plug-In . SVG Version: 6.00 Build 0)  -->
<svg version="1.1" id="Layer_1" xmlns="http://www.w3.org/2000/svg" xmlns:xlink="http://www.w3.org/1999/xlink" x="0px" y="0px"
	 viewBox="0 0 2500 1250" style="enable-background:new 0 0 2500 1250;" xml:space="preserve">
<style type="text/css">
	.st0{display:none;fill-rule:evenodd;clip-rule:evenodd;}
	.st1{fill-rule:evenodd;clip-rule:evenodd;fill:#FFFFFF;}
	.st2{fill-rule:evenodd;clip-rule:evenodd;fill:#00F2E6;}
	.st3{fill-rule:evenodd;clip-rule:evenodd;fill:#00B9F1;}
	.st4{fill-rule:evenodd;clip-rule:evenodd;fill:#D63AFF;}
	.st5{fill-rule:evenodd;clip-rule:evenodd;fill:#FB015B;}
	.st6{fill-rule:evenodd;clip-rule:evenodd;fill:#353535;}
</style>
<g>
	<path class="st0" d="M0,0h2500v1250H0V0z"/>
	<path class="st1" d="M673.8,479.4l-0.6-168.1h-93.8l0.6,168.1l46.9,64.4L673.8,479.4z M580,767.5v168.7h93.8V767.5l-46.9-64.4
		L580,767.5z"/>
	<path class="st2" d="M673.8,767.5l98.8,136.3l75.6-55l-98.8-136.3l-75.6-24.4V767.5z M580,479.4l-99.4-136.3l-75.6,55l98.8,136.2
		l76.2,24.4V479.4z"/>
	<path class="st3" d="M503.8,534.4l-160-51.9L315,571.2l160,52.5l75.6-25L503.8,534.4z M702.5,648.1l46.9,64.4l160,51.9l28.8-88.7
		l-160-51.9L702.5,648.1z"/>
	<path class="st4" d="M778.1,623.8l160-52.5l-28.8-88.7l-160,51.9l-46.9,64.4L778.1,623.8z M475,623.8l-160,51.9l28.8,88.7l160-51.9
		l46.9-64.4L475,623.8z"/>
	<path class="st5" d="M503.8,712.5L405,848.8l75.6,55L580,767.5v-79.4L503.8,712.5z M749.4,534.4l98.8-136.3l-75.6-55l-98.8,136.2
		v79.4L749.4,534.4z"/>
	<path class="st6" d="M1288.1,470.6v218.7c0,48.1-39.4,87.5-87.5,87.5V733c24.4,0,43.8-19.4,43.8-43.8V470.6H1288.1z M2086.9,514.4
		h98.7v-43.7H1945v43.7h98.1v262.5h43.8V514.4z M1813.1,470.6v218.7c0,24.4-19.4,43.8-43.8,43.8s-43.8-19.4-43.8-43.8V558.1
		c0-48.1-39.4-87.5-87.5-87.5s-87.5,39.4-87.5,87.5v131.3c0,24.4-19.4,43.8-43.8,43.8s-43.8-19.4-43.8-43.8V470.6h-43.8v218.7
		c0,48.1,39.4,87.5,87.5,87.5s87.5-39.4,87.5-87.5V558.1c0-24.4,19.4-43.8,43.8-43.8s43.8,19.4,43.8,43.8v131.3
		c0,48.1,39.4,87.5,87.5,87.5s87.5-39.4,87.5-87.5V470.6H1813.1z"/>
</g>
</svg>
